<svg xmlns="http://www.w3.org/2000/svg" xmlns:xlink="http://www.w3.org/1999/xlink" width="128" zoomAndPan="magnify" viewBox="0 0 96 95.999999" height="128" preserveAspectRatio="xMidYMid meet" version="1.0"><defs><g/><clipPath id="id1"><path d="M 0.402344 0.402344 L 95.652344 0.402344 L 95.652344 95.652344 L 0.402344 95.652344 Z M 0.402344 0.402344 " clip-rule="nonzero"/></clipPath></defs><g clip-path="url(#id1)"><path fill="#333333" d="M 48.027344 0.402344 C 21.726562 0.402344 0.402344 21.726562 0.402344 48.027344 C 0.402344 74.332031 21.726562 95.652344 48.027344 95.652344 C 74.332031 95.652344 95.652344 74.332031 95.652344 48.027344 C 95.652344 21.726562 74.332031 0.402344 48.027344 0.402344 " fill-opacity="1" fill-rule="nonzero"/></g><g fill="#ffffff" fill-opacity="1"><g transform="translate(-1.903655, 90.799804)"><g><path d="M 85.9375 -15.234375 C 81.695312 -10.085938 76.5625 -5.992188 70.53125 -2.953125 C 64.5 0.078125 57.847656 1.59375 50.578125 1.59375 C 44.304688 1.59375 38.414062 0.445312 32.90625 -1.84375 C 27.40625 -4.144531 22.609375 -7.269531 18.515625 -11.21875 C 14.421875 -15.164062 11.191406 -19.800781 8.828125 -25.125 C 6.472656 -30.457031 5.296875 -36.191406 5.296875 -42.328125 C 5.296875 -48.460938 6.472656 -54.191406 8.828125 -59.515625 C 11.191406 -64.847656 14.421875 -69.507812 18.515625 -73.5 C 22.609375 -77.488281 27.40625 -80.609375 32.90625 -82.859375 C 38.414062 -85.117188 44.304688 -86.25 50.578125 -86.25 C 57.847656 -86.25 64.5 -84.734375 70.53125 -81.703125 C 76.5625 -78.671875 81.585938 -74.71875 85.609375 -69.84375 L 74.296875 -58.203125 C 71.679688 -61.941406 68.3125 -64.957031 64.1875 -67.25 C 60.0625 -69.539062 55.523438 -70.6875 50.578125 -70.6875 C 46.628906 -70.6875 42.910156 -69.925781 39.421875 -68.40625 C 35.929688 -66.894531 32.878906 -64.851562 30.265625 -62.28125 C 27.648438 -59.707031 25.582031 -56.707031 24.0625 -53.28125 C 22.550781 -49.863281 21.796875 -46.210938 21.796875 -42.328125 C 21.796875 -38.515625 22.550781 -34.894531 24.0625 -31.46875 C 25.582031 -28.050781 27.648438 -25.054688 30.265625 -22.484375 C 32.878906 -19.910156 35.929688 -17.863281 39.421875 -16.34375 C 42.910156 -14.832031 46.628906 -14.078125 50.578125 -14.078125 C 55.804688 -14.078125 60.429688 -15.257812 64.453125 -17.625 C 68.472656 -19.988281 71.820312 -23.109375 74.5 -26.984375 Z M 85.9375 -15.234375 "/></g></g></g></svg>