<svg xmlns="http://www.w3.org/2000/svg" xmlns:xlink="http://www.w3.org/1999/xlink" width="1024" zoomAndPan="magnify" viewBox="0 0 768 383.999986" height="512" preserveAspectRatio="xMidYMid meet" version="1.0"><defs><g/></defs><path fill="#333333" d="M 384 0 C 277.960938 0 192 85.960938 192 192 C 192 298.039062 277.960938 384 384 384 C 490.039062 384 576 298.039062 576 192 C 576 85.960938 490.039062 0 384 0 " fill-opacity="1" fill-rule="nonzero"/><g fill="#ffffff" fill-opacity="1"><g transform="translate(185.522899, 360.53499)"><g><path d="M 342.71875 -60.78125 C 325.832031 -40.238281 305.359375 -23.914062 281.296875 -11.8125 C 257.242188 0.28125 230.726562 6.328125 201.75 6.328125 C 176.707031 6.328125 153.210938 1.753906 131.265625 -7.390625 C 109.316406 -16.535156 90.179688 -28.984375 73.859375 -44.734375 C 57.535156 -60.492188 44.660156 -78.992188 35.234375 -100.234375 C 25.816406 -121.484375 21.109375 -144.347656 21.109375 -168.828125 C 21.109375 -193.304688 25.816406 -216.164062 35.234375 -237.40625 C 44.660156 -258.65625 57.535156 -277.226562 73.859375 -293.125 C 90.179688 -309.019531 109.316406 -321.46875 131.265625 -330.46875 C 153.210938 -339.476562 176.707031 -343.984375 201.75 -343.984375 C 230.726562 -343.984375 257.242188 -337.929688 281.296875 -325.828125 C 305.359375 -313.734375 325.410156 -297.976562 341.453125 -278.5625 L 296.28125 -232.140625 C 285.875 -247.046875 272.441406 -259.070312 255.984375 -268.21875 C 239.523438 -277.363281 221.445312 -281.9375 201.75 -281.9375 C 185.988281 -281.9375 171.144531 -278.910156 157.21875 -272.859375 C 143.289062 -266.804688 131.117188 -258.644531 120.703125 -248.375 C 110.296875 -238.113281 102.066406 -226.15625 96.015625 -212.5 C 89.960938 -198.851562 86.9375 -184.296875 86.9375 -168.828125 C 86.9375 -153.628906 89.960938 -139.207031 96.015625 -125.5625 C 102.066406 -111.914062 110.296875 -99.957031 120.703125 -89.6875 C 131.117188 -79.414062 143.289062 -71.253906 157.21875 -65.203125 C 171.144531 -59.160156 185.988281 -56.140625 201.75 -56.140625 C 222.570312 -56.140625 241 -60.847656 257.03125 -70.265625 C 273.070312 -79.691406 286.4375 -92.144531 297.125 -107.625 Z M 342.71875 -60.78125 "/></g></g></g></svg>