<svg xmlns="http://www.w3.org/2000/svg" xmlns:xlink="http://www.w3.org/1999/xlink" width="1200" zoomAndPan="magnify" viewBox="0 0 900 472.499986" height="630" preserveAspectRatio="xMidYMid meet" version="1.0"><defs><g/><clipPath id="id1"><path d="M 225.238281 11.238281 L 674.761719 11.238281 L 674.761719 460.761719 L 225.238281 460.761719 Z M 225.238281 11.238281 " clip-rule="nonzero"/></clipPath></defs><g clip-path="url(#id1)"><path fill="#333333" d="M 450 11.238281 C 325.867188 11.238281 225.238281 111.867188 225.238281 236 C 225.238281 360.132812 325.867188 460.761719 450 460.761719 C 574.132812 460.761719 674.761719 360.132812 674.761719 236 C 674.761719 111.867188 574.132812 11.238281 450 11.238281 " fill-opacity="1" fill-rule="nonzero"/></g><g fill="#ffffff" fill-opacity="1"><g transform="translate(217.655498, 433.293449)"><g><path d="M 401.1875 -71.140625 C 381.425781 -47.097656 357.460938 -27.992188 329.296875 -13.828125 C 301.140625 0.328125 270.097656 7.40625 236.171875 7.40625 C 206.859375 7.40625 179.351562 2.054688 153.65625 -8.640625 C 127.96875 -19.347656 105.570312 -33.925781 86.46875 -52.375 C 67.363281 -70.820312 52.289062 -92.476562 41.25 -117.34375 C 30.21875 -142.207031 24.703125 -168.96875 24.703125 -197.625 C 24.703125 -226.28125 30.21875 -253.039062 41.25 -277.90625 C 52.289062 -302.78125 67.363281 -324.519531 86.46875 -343.125 C 105.570312 -361.738281 127.96875 -376.316406 153.65625 -386.859375 C 179.351562 -397.398438 206.859375 -402.671875 236.171875 -402.671875 C 270.097656 -402.671875 301.140625 -395.585938 329.296875 -381.421875 C 357.460938 -367.265625 380.929688 -348.820312 399.703125 -326.09375 L 346.84375 -271.75 C 334.65625 -289.195312 318.925781 -303.273438 299.65625 -313.984375 C 280.382812 -324.691406 259.222656 -330.046875 236.171875 -330.046875 C 217.722656 -330.046875 200.347656 -326.503906 184.046875 -319.421875 C 167.742188 -312.335938 153.5 -302.785156 141.3125 -290.765625 C 129.125 -278.742188 119.488281 -264.742188 112.40625 -248.765625 C 105.320312 -232.796875 101.78125 -215.75 101.78125 -197.625 C 101.78125 -179.84375 105.320312 -162.960938 112.40625 -146.984375 C 119.488281 -131.015625 129.125 -117.015625 141.3125 -104.984375 C 153.5 -92.960938 167.742188 -83.410156 184.046875 -76.328125 C 200.347656 -69.253906 217.722656 -65.71875 236.171875 -65.71875 C 260.546875 -65.71875 282.117188 -71.234375 300.890625 -82.265625 C 319.671875 -93.296875 335.316406 -107.867188 347.828125 -125.984375 Z M 401.1875 -71.140625 "/></g></g></g></svg>