<svg xmlns="http://www.w3.org/2000/svg" xmlns:xlink="http://www.w3.org/1999/xlink" width="500" zoomAndPan="magnify" viewBox="0 0 375 374.999991" height="500" preserveAspectRatio="xMidYMid meet" version="1.0"><path fill="#ffffff" d="M 121.582031 85.621094 C 121.582031 102.757812 109.570312 121.582031 68.480469 121.582031 L 17.140625 121.582031 L 32.519531 56.542969 L 82.179688 56.542969 C 113.011719 56.542969 121.582031 73.609375 121.582031 85.621094 Z M 214.011719 56.542969 L 164.355469 56.542969 L 150.660156 121.582031 L 202 121.582031 C 241.40625 121.582031 253.34375 102.757812 253.34375 85.621094 C 253.417969 73.609375 244.847656 56.542969 214.011719 56.542969 Z M 65.039062 152.417969 L 15.382812 152.417969 L 0 217.457031 L 51.34375 217.457031 C 92.429688 217.457031 104.445312 200.316406 104.445312 181.492188 C 104.445312 169.554688 95.875 152.417969 65.039062 152.417969 Z M 196.949219 152.417969 L 147.289062 152.417969 L 133.59375 217.457031 L 184.9375 217.457031 C 224.339844 217.457031 236.28125 200.316406 236.28125 181.496094 C 236.28125 169.554688 227.710938 152.417969 196.949219 152.417969 Z M 335.59375 113.011719 L 285.9375 113.011719 L 272.242188 178.050781 L 323.582031 178.050781 C 362.988281 178.050781 374.925781 160.914062 374.925781 142.089844 C 375 130.152344 366.429688 113.011719 335.59375 113.011719 Z M 315.085938 214.011719 L 265.429688 214.011719 L 251.734375 279.050781 L 303.074219 279.050781 C 344.164062 279.050781 354.417969 261.914062 354.417969 243.089844 C 354.417969 231.152344 345.921875 214.011719 315.085938 214.011719 Z M 176.367188 253.417969 L 126.707031 253.417969 L 113.011719 318.457031 L 164.355469 318.457031 C 205.445312 318.457031 215.699219 299.632812 215.699219 282.496094 C 215.769531 270.554688 207.203125 253.417969 176.367188 253.417969 Z M 176.367188 253.417969 " fill-opacity="1" fill-rule="nonzero"/></svg>