<svg xmlns="http://www.w3.org/2000/svg" xmlns:xlink="http://www.w3.org/1999/xlink" width="128" zoomAndPan="magnify" viewBox="0 0 96 95.999999" height="128" preserveAspectRatio="xMidYMid meet" version="1.0"><path fill="#1ed760" d="M 48 0 C 21.449219 0 0 21.503906 0 48 C 0 74.550781 21.503906 96 48 96 C 74.550781 96 96 74.496094 96 48 C 96 21.503906 74.496094 0 48 0 Z M 70.019531 69.277344 C 69.160156 70.710938 67.324219 71.109375 65.890625 70.25 C 54.59375 63.367188 40.429688 61.820312 23.679688 65.605469 C 22.074219 65.949219 20.46875 64.976562 20.125 63.371094 C 19.78125 61.765625 20.753906 60.160156 22.359375 59.816406 C 40.65625 55.628906 56.367188 57.40625 68.984375 65.148438 C 69.328125 65.355469 69.617188 65.617188 69.855469 65.9375 C 70.09375 66.257812 70.261719 66.613281 70.359375 67 C 70.457031 67.386719 70.472656 67.777344 70.414062 68.171875 C 70.355469 68.570312 70.222656 68.9375 70.015625 69.277344 Z M 75.871094 56.199219 C 74.78125 57.976562 72.484375 58.496094 70.710938 57.460938 C 57.808594 49.546875 38.136719 47.253906 22.882812 51.839844 C 20.875 52.414062 18.8125 51.324219 18.238281 49.375 C 17.664062 47.367188 18.753906 45.304688 20.761719 44.726562 C 38.191406 39.453125 59.871094 41.976562 74.722656 51.09375 C 76.445312 52.125 76.960938 54.421875 75.871094 56.199219 Z M 76.386719 42.550781 C 60.902344 33.375 35.382812 32.515625 20.585938 36.988281 C 18.234375 37.734375 15.710938 36.359375 14.964844 34.007812 C 14.21875 31.65625 15.59375 29.132812 17.949219 28.386719 C 34.921875 23.226562 63.136719 24.257812 80.917969 34.808594 C 83.039062 36.070312 83.726562 38.824219 82.464844 40.945312 C 81.316406 43.125 78.507812 43.8125 76.386719 42.550781 Z M 76.386719 42.550781 " fill-opacity="1" fill-rule="nonzero"/></svg>