<svg xmlns="http://www.w3.org/2000/svg" xmlns:xlink="http://www.w3.org/1999/xlink" width="128" zoomAndPan="magnify" viewBox="0 0 96 95.999999" height="128" preserveAspectRatio="xMidYMid meet" version="1.0"><path fill="#e52d27" d="M 96 81.410156 C 96 89.457031 89.457031 96 81.410156 96 L 14.589844 96 C 6.542969 96 0 89.457031 0 81.410156 L 0 14.589844 C 0 6.542969 6.542969 0 14.589844 0 L 81.410156 0 C 89.457031 0 96 6.542969 96 14.589844 Z M 96 81.410156 " fill-opacity="1" fill-rule="nonzero"/><path fill="#ffffff" d="M 82.027344 48.757812 C 82.027344 54.066406 82.027344 59.691406 80.84375 64.835938 C 80.007812 68.457031 77.054688 71.109375 73.480469 71.511719 C 65.050781 72.445312 56.503906 72.464844 48.007812 72.445312 C 39.496094 72.445312 30.980469 72.445312 22.535156 71.511719 C 18.980469 71.109375 16.007812 68.457031 15.171875 64.835938 C 13.988281 59.691406 13.988281 54.066406 13.988281 48.757812 C 13.988281 43.453125 14.003906 37.824219 15.171875 32.683594 C 16.007812 29.0625 18.964844 26.40625 22.535156 26.007812 C 30.980469 25.054688 39.511719 25.054688 48.007812 25.054688 C 56.503906 25.054688 65.035156 25.054688 73.480469 26.007812 C 77.035156 26.40625 80.007812 29.0625 80.84375 32.683594 C 82.027344 37.824219 82.027344 43.453125 82.027344 48.757812 Z M 82.027344 48.757812 " fill-opacity="1" fill-rule="nonzero"/><path fill="#e52d27" d="M 40.847656 36.105469 L 40.847656 61.53125 L 60.59375 48.808594 Z M 40.847656 36.105469 " fill-opacity="1" fill-rule="nonzero"/></svg>